<svg id="MA-favicon" data-name="MA-favicon" xmlns="http://www.w3.org/2000/svg" viewBox="0 0 480 480">
  <defs>
    <style>
      .ma-a {
        fill: #bcbec0;
      }
      .ma-m {
        fill: #000000;
      }
       @media (prefers-color-scheme: dark) {
        .ma-m {
          fill: #ffffff;
        }
      }
    </style>
  </defs>
  <title>logo-ma</title>
  <g>
    <polygon id="A" class="ma-a" fill="#bcbec0" points="361.83 40.45 361.83 390.85 343.4 390.85 343.4 274.58 326.76 274.58 326.76 234.25 305.27 234.25 305.27 193.93 289.44 193.93 289.44 153.6 266.96 153.6 266.96 125.55 208.95 125.55 208.95 153.6 191.41 153.6 191.41 193.93 176.15 193.93 176.15 234.25 154.09 234.25 154.09 274.58 137.45 274.58 137.45 390.85 119.02 390.85 119.02 40.45 73.6 40.48 73.6 440.38 176.13 440.42 176.13 287.29 191.36 287.29 191.36 246.96 212.55 246.96 212.55 206.2 230.53 206.2 230.53 164.56 250.32 164.56 250.32 206.2 268.3 206.2 268.3 246.96 289.49 246.96 289.49 287.29 305.29 287.29 305.29 440.35 407.25 440.31 407.25 40.45 361.83 40.45"/>
    <polygon id="M" class="ma-m" fill="#000000" points="305.29 193.98 289.49 193.98 289.49 234.31 268.3 234.31 268.3 275.07 250.32 275.07 250.32 316.71 230.53 316.71 230.53 275.07 212.55 275.07 212.55 234.31 191.36 234.31 191.36 193.98 176.13 193.98 176.13 40.42 73.6 40.49 73.6 390.67 119.02 390.83 119.02 90.42 137.45 90.42 137.45 206.69 154.09 206.69 154.09 247.02 176.15 247.02 176.15 287.34 191.41 287.34 191.41 327.67 208.95 327.67 208.95 355.72 266.96 355.72 266.96 327.67 289.44 327.67 289.44 287.34 305.27 287.34 305.27 247.02 326.76 247.02 326.76 206.69 343.4 206.69 343.4 90.42 361.83 90.42 361.83 390.83 407.25 390.83 407.25 40.43 305.29 40.42 305.29 193.98"/>
  </g>
</svg>
