<svg id="Layer_1" data-name="Layer 1" xmlns="http://www.w3.org/2000/svg" viewBox="0 0 1600 1600"><defs><style>.cls-1{fill:#bcbec0;}</style></defs><g id="ma"><polygon id="a" class="cls-1" points="1233.81 83 1233.81 1342.27 1167.53 1342.27 1167.53 926.53 1107.28 926.53 1107.28 781.92 1028.95 781.92 1028.95 637.32 974.73 637.32 974.73 492.71 896.4 492.71 896.4 390.29 691.54 390.29 691.54 492.71 625.26 492.71 625.26 637.32 571.04 637.32 571.04 781.92 492.71 781.92 492.71 926.53 432.46 926.53 432.46 1342.27 366.18 1342.27 366.18 89 203.5 89 203.5 1517 571.04 1517 571.04 968.71 625.26 968.71 625.26 824.1 703.59 824.1 703.59 679.5 763.85 679.5 763.85 528.87 836.15 528.87 836.15 679.5 896.4 679.5 896.4 824.1 974.73 824.1 974.73 968.71 1028.95 968.71 1028.95 1517 1396.49 1517 1396.49 83 1233.81 83"/><polygon id="m" points="1028.95 637.32 974.73 637.32 974.73 781.92 896.4 781.92 896.4 926.53 836.15 926.53 836.15 1077.16 763.85 1077.16 763.85 926.53 703.59 926.53 703.59 781.92 625.26 781.92 625.26 637.32 571.04 637.32 571.04 89.03 203.5 89.03 203.5 1342 366.5 1342 366.18 263.76 432.46 263.76 432.46 679.5 492.5 679.5 492.71 824.1 571.04 824.1 571.04 968.71 625.26 968.71 625.26 1113.31 691.54 1113.31 691.54 1215.74 896.4 1215.74 896.4 1113.31 974.73 1113.31 974.73 968.71 1028.95 968.71 1028.95 824.1 1107.28 824.1 1107.28 679.5 1167.53 679.5 1167.53 263.76 1233.81 263.76 1233.5 1342 1396.5 1342 1396.49 83 1028.95 83 1028.95 637.32"/></g></svg>