<svg id="MA-favicon" data-name="MA-favicon" xmlns="http://www.w3.org/2000/svg" viewBox="0 0 480 480"><defs><style>@media (prefers-color-scheme:dark){.ma-m{fill:#fff}}</style></defs><path id="A" fill="#bcbec0" style="fill:#bcbec0" d="M361.83 40.45v350.4H343.4V274.58h-16.64v-40.33h-21.49v-40.32h-15.83V153.6h-22.48v-28.05h-58.01v28.05h-17.54v40.33h-15.26v40.32h-22.06v40.33h-16.64v116.27h-18.43V40.45l-45.42.03v399.9l102.53.04V287.29h15.23v-40.33h21.19V206.2h17.98v-41.64h19.79v41.64h17.98v40.76h21.19v40.33h15.8v153.06l101.96-.04V40.45h-45.42z"/><path id="M" fill="#000" style="fill:#000" d="M305.29 193.98h-15.8v40.33H268.3v40.76h-17.98v41.64h-19.79v-41.64h-17.98v-40.76h-21.19v-40.33h-15.23V40.42l-102.53.07v350.18l45.42.16V90.42h18.43v116.27h16.64v40.33h22.06v40.32h15.26v40.33h17.54v28.05h58.01v-28.05h22.48v-40.33h15.83v-40.32h21.49v-40.33h16.64V90.42h18.43v300.41h45.42V40.43l-101.96-.01v153.56z"/></svg>